<svg xmlns="http://www.w3.org/2000/svg" viewBox="0 0 100 125"><path d="M90.206 2.763H9.793c-2.177 0-3.882 1.545-3.882 3.516 0 1.792 1.409 3.231 3.3 3.479V93.468c0 .804.345 3.428 4.782 3.428.774 0 3.325-.072 4.556-.979.178-.1.539-.235.814-.284.866.706 1.946 1.073 3.152 1.073 1.069 0 2.215-.309 2.961-.791a4.183 4.183 0 0 1 1.032-.342c.863.506 2.007.752 3.481.752 1.01 0 1.861-.114 1.955-.127a2.615 2.615 0 0 0 2.234-2.258c1.703-13.22-.211-23.424-5.69-30.33a22.135 22.135 0 0 0-5.898-5.222c9.198-4.594 14.929-13.96 16.722-27.506 1.196-9.038.332-17.527-.228-21.484h21.833c-.559 3.957-1.423 12.447-.228 21.484C62.481 44.43 68.212 53.796 77.41 58.39a22.15 22.15 0 0 0-5.898 5.222c-5.478 6.906-7.393 17.11-5.689 30.33a2.615 2.615 0 0 0 2.234 2.258c.094.013.943.127 1.955.127 1.475 0 2.619-.246 3.481-.752.32.051.793.219 1.031.342.746.482 1.893.791 2.961.791 1.206 0 2.287-.367 3.153-1.073.273.049.636.185.813.284 1.229.906 3.781.979 4.556.979 4.437 0 4.78-2.624 4.78-3.428V9.758c1.893-.248 3.302-1.687 3.302-3.479.001-1.971-1.704-3.516-3.883-3.516zM17.649 93.45c-.318.14-.563.284-.673.378-.224.191-1.678.453-2.984.453-1.138 0-2.166-.198-2.166-.812v-32.6c6.929 7.958 5.903 30.986 5.823 32.581zm-3.08-40.275c1.552-3.466 3.24-10.061 4.236-22.94.65-8.393.772-16.546.791-20.313h6.388c-.098 7.943-1.201 34.8-11.415 43.253zM28.611 9.922h5.924c-.145 7.989-1.777 35.249-17.039 44.054C27.535 43.604 28.544 17.829 28.611 9.922zM11.827 52.856V10.541v-.62h5.163c-.008 14.639-1.396 35.915-5.163 42.935zm13.026 40.483c-.383.149-.681.298-.785.37-.19.134-.833.383-1.554.383-.563 0-1.173-.15-1.654-.623a1.52 1.52 0 0 0-.575-.349c.158-3.513.672-21.398-4.587-31.124 10.84 8.626 9.319 29.455 9.155 31.343zm-9.88-35.065s20.885 2.129 16.609 35.333c0 0-.735.102-1.594.102-.836 0-1.789-.096-2.289-.48a1.157 1.157 0 0 0-.2-.121c.334-4.242 1.439-27.228-12.896-34.978 9.521-3.17 16.38-12.425 19.939-26.995 1.543-6.317 2.188-12.41 2.452-16.812 1.056 12.655.47 39.137-22.021 43.951zM72.5 93.107c-.07.034-.138.074-.199.121-.5.385-1.452.48-2.289.48-.858 0-1.594-.102-1.594-.102-4.276-33.204 16.608-35.333 16.608-35.333-22.491-4.814-23.077-31.297-22.02-43.951.261 4.402.906 10.494 2.449 16.812 3.561 14.569 10.42 23.825 19.94 26.995C71.061 65.88 72.166 88.865 72.5 93.107zm10.004-39.131C67.242 45.171 65.609 17.911 65.465 9.922h5.925c.066 7.907 1.074 33.682 11.114 44.054zM74.015 9.922h6.389c.019 3.767.141 11.92.791 20.313.996 12.879 2.685 19.474 4.236 22.94-10.214-8.453-11.317-35.31-11.416-43.253zm5.701 83.198c-.214.074-.41.185-.576.349-.48.473-1.091.623-1.654.623-.721 0-1.363-.249-1.553-.383-.105-.072-.403-.221-.785-.37-.164-1.888-1.687-22.717 9.156-31.343-5.261 9.726-4.746 27.611-4.588 31.124zm8.456.349c0 .614-1.025.812-2.164.812-1.306 0-2.759-.262-2.984-.453-.11-.094-.354-.238-.672-.378-.081-1.595-1.106-24.623 5.82-32.581v32.6zm0-82.927v42.315c-3.766-7.02-5.154-28.297-5.161-42.935h5.161v.62zm2.034-3.362c-.429 0-2.034.126-2.034.126H11.827s-1.604-.126-2.034-.126c-.699 0-1.267-.403-1.267-.9s.567-.9 1.267-.9h80.413c.7 0 1.268.403 1.268.9s-.568.9-1.268.9z" fill="#2a6778" stroke="#fff"/><path fill="#2a6778" d="M90.206 2.763H9.793c-2.177 0-3.882 1.545-3.882 3.516 0 1.792 1.409 3.231 3.3 3.479V93.468c0 .804.345 3.428 4.782 3.428.774 0 3.325-.072 4.556-.979.178-.1.539-.235.814-.284.866.706 1.946 1.073 3.152 1.073 1.069 0 2.215-.309 2.961-.791a4.183 4.183 0 0 1 1.032-.342c.863.506 2.007.752 3.481.752 1.01 0 1.861-.114 1.955-.127a2.615 2.615 0 0 0 2.234-2.258c1.703-13.22-.211-23.424-5.69-30.33a22.135 22.135 0 0 0-5.898-5.222c9.198-4.594 14.929-13.96 16.722-27.506 1.196-9.038.332-17.527-.228-21.484h21.833c-.559 3.957-1.423 12.447-.228 21.484C62.481 44.43 68.212 53.796 77.41 58.39a22.15 22.15 0 0 0-5.898 5.222c-5.478 6.906-7.393 17.11-5.689 30.33a2.615 2.615 0 0 0 2.234 2.258c.094.013.943.127 1.955.127 1.475 0 2.619-.246 3.481-.752.32.051.793.219 1.031.342.746.482 1.893.791 2.961.791 1.206 0 2.287-.367 3.153-1.073.273.049.636.185.813.284 1.229.906 3.781.979 4.556.979 4.437 0 4.78-2.624 4.78-3.428V9.758c1.893-.248 3.302-1.687 3.302-3.479.001-1.971-1.704-3.516-3.883-3.516zM17.649 93.45c-.318.14-.563.284-.673.378-.224.191-1.678.453-2.984.453-1.138 0-2.166-.198-2.166-.812v-32.6c6.929 7.958 5.903 30.986 5.823 32.581zm-3.08-40.275c1.552-3.466 3.24-10.061 4.236-22.94.65-8.393.772-16.546.791-20.313h6.388c-.098 7.943-1.201 34.8-11.415 43.253zM28.611 9.922h5.924c-.145 7.989-1.777 35.249-17.039 44.054C27.535 43.604 28.544 17.829 28.611 9.922zM11.827 52.856V10.541v-.62h5.163c-.008 14.639-1.396 35.915-5.163 42.935zm13.026 40.483c-.383.149-.681.298-.785.37-.19.134-.833.383-1.554.383-.563 0-1.173-.15-1.654-.623a1.52 1.52 0 0 0-.575-.349c.158-3.513.672-21.398-4.587-31.124 10.84 8.626 9.319 29.455 9.155 31.343zm-9.88-35.065s20.885 2.129 16.609 35.333c0 0-.735.102-1.594.102-.836 0-1.789-.096-2.289-.48a1.157 1.157 0 0 0-.2-.121c.334-4.242 1.439-27.228-12.896-34.978 9.521-3.17 16.38-12.425 19.939-26.995 1.543-6.317 2.188-12.41 2.452-16.812 1.056 12.655.47 39.137-22.021 43.951zM72.5 93.107c-.07.034-.138.074-.199.121-.5.385-1.452.48-2.289.48-.858 0-1.594-.102-1.594-.102-4.276-33.204 16.608-35.333 16.608-35.333-22.491-4.814-23.077-31.297-22.02-43.951.261 4.402.906 10.494 2.449 16.812 3.561 14.569 10.42 23.825 19.94 26.995C71.061 65.88 72.166 88.865 72.5 93.107zm10.004-39.131C67.242 45.171 65.609 17.911 65.465 9.922h5.925c.066 7.907 1.074 33.682 11.114 44.054zM74.015 9.922h6.389c.019 3.767.141 11.92.791 20.313.996 12.879 2.685 19.474 4.236 22.94-10.214-8.453-11.317-35.31-11.416-43.253zm5.701 83.198c-.214.074-.41.185-.576.349-.48.473-1.091.623-1.654.623-.721 0-1.363-.249-1.553-.383-.105-.072-.403-.221-.785-.37-.164-1.888-1.687-22.717 9.156-31.343-5.261 9.726-4.746 27.611-4.588 31.124zm8.456.349c0 .614-1.025.812-2.164.812-1.306 0-2.759-.262-2.984-.453-.11-.094-.354-.238-.672-.378-.081-1.595-1.106-24.623 5.82-32.581v32.6zm0-82.927v42.315c-3.766-7.02-5.154-28.297-5.161-42.935h5.161v.62zm2.034-3.362c-.429 0-2.034.126-2.034.126H11.827s-1.604-.126-2.034-.126c-.699 0-1.267-.403-1.267-.9s.567-.9 1.267-.9h80.413c.7 0 1.268.403 1.268.9s-.568.9-1.268.9z" stroke="#fff" stroke-width=".5"/></svg>